<svg width="39" height="39" viewBox="0 0 39 39" fill="none" xmlns="http://www.w3.org/2000/svg">
<g clip-path="url(#clip0_140_172)">
<path d="M34.32 0.779999H4.68003C2.52957 0.779999 0.780029 2.52954 0.780029 4.68V34.32C0.780029 36.4705 2.52957 38.22 4.68003 38.22H34.32C36.4705 38.22 38.22 36.4705 38.22 34.32V4.68C38.22 2.52954 36.4705 0.779999 34.32 0.779999ZM36.66 34.32C36.66 35.6101 35.6101 36.66 34.32 36.66H4.68003C3.38991 36.66 2.34003 35.6101 2.34003 34.32V4.68C2.34003 3.38988 3.38991 2.34 4.68003 2.34H34.32C35.6101 2.34 36.66 3.38988 36.66 4.68V34.32Z" fill="#F3FFFE"/>
<path d="M6.24005 32.76H12.4801V14.82H6.24005V32.76ZM7.80005 16.38H10.9201V31.2H7.80005V16.38Z" fill="#F3FFFE"/>
<path d="M9.36002 5.46C7.20956 5.46 5.46002 7.20954 5.46002 9.36C5.46002 11.5105 7.20956 13.26 9.36002 13.26C11.5105 13.26 13.26 11.5105 13.26 9.36C13.26 7.20954 11.5105 5.46 9.36002 5.46ZM9.36002 11.7C8.0699 11.7 7.02002 10.6501 7.02002 9.36C7.02002 8.06988 8.0699 7.02 9.36002 7.02C10.6501 7.02 11.7 8.06988 11.7 9.36C11.7 10.6501 10.6501 11.7 9.36002 11.7Z" fill="#F3FFFE"/>
<path d="M24.18 14.82C23.1169 14.82 22.0717 15.0602 21.06 15.5345V14.82H14.82V32.76H21.06V24.18C21.06 22.4593 22.4593 21.06 24.18 21.06C25.9007 21.06 27.3 22.4593 27.3 24.18V32.76H33.54V24.18C33.54 19.0187 29.3413 14.82 24.18 14.82ZM31.98 31.2H28.86V24.18C28.86 21.599 26.761 19.5 24.18 19.5C21.599 19.5 19.5 21.599 19.5 24.18V31.2H16.38V16.38H19.5V18.3464L20.7176 17.5219C21.8369 16.7645 23.0014 16.38 24.18 16.38C28.4809 16.38 31.98 19.8791 31.98 24.18V31.2Z" fill="#F3FFFE"/>
</g>
<defs>
<clipPath id="clip0_140_172">
<rect width="39" height="39" fill="white"/>
</clipPath>
</defs>
</svg>
