<svg width="209" height="77" viewBox="0 0 209 77" fill="none" xmlns="http://www.w3.org/2000/svg">
<path d="M76.5938 38.5548L65.8516 53.5548L65.3438 65.7814H56.0859L56.3203 53.6329L50.7344 39.1407L60.6953 37.8907L62.2578 46.3282L67.2188 37.8907L76.5938 38.5548ZM97.6094 63.3204L87.9219 64.5704L86.75 60.1564H82.2969L81.3203 64.5704L71.3594 63.5939L79.1328 37.5782L89.9922 37.0314L97.6094 63.3204ZM86.0469 54.1798L84.5625 47.3829L83.1172 54.1798H86.0469ZM124.582 36.9923L123.176 63.4767L112.941 64.4142L107.473 50.2345L106.613 64.6876H97.8242L98.5273 36.9923L108.293 36.5236L115.051 50.5861L115.363 37.3048L124.582 36.9923ZM149.758 61.0157C149.146 61.784 148.391 62.4545 147.492 63.0275C146.594 63.6004 145.63 64.0756 144.602 64.4532C143.573 64.8309 142.518 65.1108 141.438 65.2931C140.357 65.4884 139.328 65.5861 138.352 65.5861C136.464 65.5861 134.725 65.2475 133.137 64.5704C131.548 63.8934 130.174 62.9624 129.016 61.7775C127.87 60.5795 126.971 59.1733 126.32 57.5587C125.669 55.9441 125.344 54.2059 125.344 52.3439C125.344 50.9246 125.507 49.5379 125.832 48.1837C126.158 46.8165 126.62 45.534 127.219 44.3361C127.831 43.1251 128.573 42.0184 129.445 41.0157C130.318 40.0001 131.307 39.1277 132.414 38.3986C133.521 37.6694 134.732 37.103 136.047 36.6993C137.362 36.2957 138.768 36.0939 140.266 36.0939C140.826 36.0939 141.424 36.1199 142.062 36.172C142.701 36.2111 143.332 36.2892 143.957 36.4064C144.595 36.5105 145.214 36.6603 145.812 36.8556C146.411 37.0509 146.958 37.2918 147.453 37.5782L146.906 45.0392C146.177 44.7657 145.422 44.5835 144.641 44.4923C143.872 44.3881 143.117 44.3361 142.375 44.3361C141.333 44.3361 140.357 44.4988 139.445 44.8243C138.547 45.1368 137.759 45.5926 137.082 46.1915C136.418 46.7905 135.891 47.5197 135.5 48.379C135.109 49.2384 134.914 50.2085 134.914 51.2892C134.914 51.9663 135.005 52.6238 135.188 53.2618C135.37 53.8868 135.643 54.4467 136.008 54.9415C136.385 55.4233 136.848 55.8139 137.395 56.1134C137.954 56.4129 138.599 56.5626 139.328 56.5626C139.823 56.5626 140.331 56.4975 140.852 56.3673C141.385 56.2371 141.841 56.0157 142.219 55.7032L142.297 54.1798L137.609 54.1017L137.844 48.2423C139.784 48.1772 141.724 48.1251 143.664 48.0861C145.604 48.034 147.557 47.9689 149.523 47.8907L149.758 61.0157ZM171.262 54.6095C171.262 56.3934 170.949 57.9559 170.324 59.297C169.712 60.6251 168.866 61.7319 167.785 62.6173C166.717 63.5027 165.461 64.1668 164.016 64.6095C162.583 65.0522 161.04 65.2736 159.387 65.2736C158.749 65.2736 158.046 65.1889 157.277 65.0197C156.522 64.8504 155.754 64.642 154.973 64.3947C154.191 64.1342 153.436 63.8608 152.707 63.5743C151.991 63.2749 151.353 62.9949 150.793 62.7345L151.652 54.6876C152.759 55.3517 153.983 55.8595 155.324 56.2111C156.678 56.5496 158.007 56.7189 159.309 56.7189C159.556 56.7189 159.855 56.7124 160.207 56.6993C160.559 56.6733 160.891 56.6147 161.203 56.5236C161.529 56.4194 161.802 56.2697 162.023 56.0743C162.245 55.879 162.355 55.5991 162.355 55.2345C162.355 54.9871 162.277 54.7788 162.121 54.6095C161.965 54.4272 161.763 54.284 161.516 54.1798C161.268 54.0626 160.988 53.978 160.676 53.9259C160.363 53.8608 160.057 53.8152 159.758 53.7892C159.458 53.7631 159.178 53.7501 158.918 53.7501C158.658 53.7501 158.449 53.7501 158.293 53.7501C157.173 53.7501 156.151 53.5548 155.227 53.1642C154.315 52.7736 153.527 52.2332 152.863 51.5431C152.212 50.84 151.704 50.0131 151.34 49.0626C150.975 48.0991 150.793 47.0574 150.793 45.9376C150.793 44.4012 151.099 43.0275 151.711 41.8165C152.336 40.5926 153.163 39.5574 154.191 38.7111C155.233 37.8517 156.424 37.1941 157.766 36.7384C159.107 36.2827 160.493 36.0548 161.926 36.0548C162.564 36.0548 163.221 36.0809 163.898 36.1329C164.576 36.172 165.246 36.2501 165.91 36.3673C166.587 36.4845 167.245 36.6342 167.883 36.8165C168.521 36.9988 169.126 37.2267 169.699 37.5001L168.957 45.4298C168.072 45.1303 167.141 44.8829 166.164 44.6876C165.201 44.4793 164.257 44.3751 163.332 44.3751C163.163 44.3751 162.941 44.3816 162.668 44.3947C162.408 44.3947 162.128 44.4142 161.828 44.4532C161.542 44.4793 161.249 44.5249 160.949 44.59C160.65 44.6551 160.383 44.7462 160.148 44.8634C159.914 44.9676 159.725 45.1108 159.582 45.2931C159.439 45.4754 159.374 45.6902 159.387 45.9376C159.4 46.2241 159.504 46.4585 159.699 46.6407C159.908 46.81 160.168 46.9467 160.48 47.0509C160.806 47.142 161.158 47.2072 161.535 47.2462C161.926 47.2853 162.31 47.3113 162.688 47.3243C163.065 47.3243 163.417 47.3243 163.742 47.3243C164.068 47.3113 164.335 47.3178 164.543 47.3439C165.585 47.409 166.522 47.6303 167.355 48.0079C168.189 48.3855 168.892 48.8868 169.465 49.5118C170.051 50.1368 170.493 50.8855 170.793 51.7579C171.105 52.6173 171.262 53.5678 171.262 54.6095ZM195.695 64.2189L185.93 64.6876L185.852 56.4454H181.359L181.086 65.0001H172.336L173.078 37.5392L182.375 37.9689L181.789 51.9923H186.125L186.164 37.3048L195.07 37.5392L195.695 64.2189ZM208.098 37.5001L205.949 64.1017L197.707 64.5314V38.047L208.098 37.5001Z" fill="#F3FFFE"/>
<path fill-rule="evenodd" clip-rule="evenodd" d="M9.5 12.0001C9.5 9.79098 11.2909 8.00012 13.5 8.00012H45.5C47.7091 8.00012 49.5 9.79098 49.5 12.0001V27.1867L39 9.00012L26.4426 30.7501H49.5V35.8813L41.5 40.5001L49.3635 45.0401C48.9057 46.745 47.3494 48.0001 45.5 48.0001H13.5C11.2909 48.0001 9.5 46.2093 9.5 44.0001V12.0001Z" fill="#F3FFFE"/>
<path d="M43.5 19.0001L59.0885 46.0001H27.9115L43.5 19.0001Z" fill="#00D7F5"/>
<g filter="url(#filter0_d_81_252)">
<path d="M31.5 11.0001L47.0885 38.0001H15.9115L31.5 11.0001Z" fill="#6B0189"/>
</g>
<defs>
<filter id="filter0_d_81_252" x="0.911545" y="0.00012207" width="61.1769" height="57" filterUnits="userSpaceOnUse" color-interpolation-filters="sRGB">
<feFlood flood-opacity="0" result="BackgroundImageFix"/>
<feColorMatrix in="SourceAlpha" type="matrix" values="0 0 0 0 0 0 0 0 0 0 0 0 0 0 0 0 0 0 127 0" result="hardAlpha"/>
<feOffset dy="4"/>
<feGaussianBlur stdDeviation="7.5"/>
<feComposite in2="hardAlpha" operator="out"/>
<feColorMatrix type="matrix" values="0 0 0 0 1 0 0 0 0 1 0 0 0 0 1 0 0 0 0.36 0"/>
<feBlend mode="normal" in2="BackgroundImageFix" result="effect1_dropShadow_81_252"/>
<feBlend mode="normal" in="SourceGraphic" in2="effect1_dropShadow_81_252" result="shape"/>
</filter>
</defs>
</svg>
