<svg width="208" height="77" viewBox="0 0 208 77" fill="none" xmlns="http://www.w3.org/2000/svg">
<path d="M76.0938 38.5547L65.3516 53.5547L64.8438 65.7812H55.5859L55.8203 53.6328L50.2344 39.1406L60.1953 37.8906L61.7578 46.3281L66.7188 37.8906L76.0938 38.5547ZM97.1094 63.3203L87.4219 64.5703L86.25 60.1562H81.7969L80.8203 64.5703L70.8594 63.5938L78.6328 37.5781L89.4922 37.0312L97.1094 63.3203ZM85.5469 54.1797L84.0625 47.3828L82.6172 54.1797H85.5469ZM124.082 36.9922L122.676 63.4766L112.441 64.4141L106.973 50.2344L106.113 64.6875H97.3242L98.0273 36.9922L107.793 36.5234L114.551 50.5859L114.863 37.3047L124.082 36.9922ZM149.258 61.0156C148.646 61.7839 147.891 62.4544 146.992 63.0273C146.094 63.6003 145.13 64.0755 144.102 64.4531C143.073 64.8307 142.018 65.1107 140.938 65.293C139.857 65.4883 138.828 65.5859 137.852 65.5859C135.964 65.5859 134.225 65.2474 132.637 64.5703C131.048 63.8932 129.674 62.9622 128.516 61.7773C127.37 60.5794 126.471 59.1732 125.82 57.5586C125.169 55.944 124.844 54.2057 124.844 52.3438C124.844 50.9245 125.007 49.5378 125.332 48.1836C125.658 46.8164 126.12 45.5339 126.719 44.3359C127.331 43.125 128.073 42.0182 128.945 41.0156C129.818 40 130.807 39.1276 131.914 38.3984C133.021 37.6693 134.232 37.1029 135.547 36.6992C136.862 36.2956 138.268 36.0938 139.766 36.0938C140.326 36.0938 140.924 36.1198 141.562 36.1719C142.201 36.2109 142.832 36.2891 143.457 36.4062C144.095 36.5104 144.714 36.6602 145.312 36.8555C145.911 37.0508 146.458 37.2917 146.953 37.5781L146.406 45.0391C145.677 44.7656 144.922 44.5833 144.141 44.4922C143.372 44.388 142.617 44.3359 141.875 44.3359C140.833 44.3359 139.857 44.4987 138.945 44.8242C138.047 45.1367 137.259 45.5924 136.582 46.1914C135.918 46.7904 135.391 47.5195 135 48.3789C134.609 49.2383 134.414 50.2083 134.414 51.2891C134.414 51.9661 134.505 52.6237 134.688 53.2617C134.87 53.8867 135.143 54.4466 135.508 54.9414C135.885 55.4232 136.348 55.8138 136.895 56.1133C137.454 56.4128 138.099 56.5625 138.828 56.5625C139.323 56.5625 139.831 56.4974 140.352 56.3672C140.885 56.237 141.341 56.0156 141.719 55.7031L141.797 54.1797L137.109 54.1016L137.344 48.2422C139.284 48.1771 141.224 48.125 143.164 48.0859C145.104 48.0339 147.057 47.9688 149.023 47.8906L149.258 61.0156ZM170.762 54.6094C170.762 56.3932 170.449 57.9557 169.824 59.2969C169.212 60.625 168.366 61.7318 167.285 62.6172C166.217 63.5026 164.961 64.1667 163.516 64.6094C162.083 65.0521 160.54 65.2734 158.887 65.2734C158.249 65.2734 157.546 65.1888 156.777 65.0195C156.022 64.8503 155.254 64.6419 154.473 64.3945C153.691 64.1341 152.936 63.8607 152.207 63.5742C151.491 63.2747 150.853 62.9948 150.293 62.7344L151.152 54.6875C152.259 55.3516 153.483 55.8594 154.824 56.2109C156.178 56.5495 157.507 56.7188 158.809 56.7188C159.056 56.7188 159.355 56.7122 159.707 56.6992C160.059 56.6732 160.391 56.6146 160.703 56.5234C161.029 56.4193 161.302 56.2695 161.523 56.0742C161.745 55.8789 161.855 55.599 161.855 55.2344C161.855 54.987 161.777 54.7786 161.621 54.6094C161.465 54.4271 161.263 54.2839 161.016 54.1797C160.768 54.0625 160.488 53.9779 160.176 53.9258C159.863 53.8607 159.557 53.8151 159.258 53.7891C158.958 53.763 158.678 53.75 158.418 53.75C158.158 53.75 157.949 53.75 157.793 53.75C156.673 53.75 155.651 53.5547 154.727 53.1641C153.815 52.7734 153.027 52.2331 152.363 51.543C151.712 50.8398 151.204 50.013 150.84 49.0625C150.475 48.099 150.293 47.0573 150.293 45.9375C150.293 44.401 150.599 43.0273 151.211 41.8164C151.836 40.5924 152.663 39.5573 153.691 38.7109C154.733 37.8516 155.924 37.194 157.266 36.7383C158.607 36.2826 159.993 36.0547 161.426 36.0547C162.064 36.0547 162.721 36.0807 163.398 36.1328C164.076 36.1719 164.746 36.25 165.41 36.3672C166.087 36.4844 166.745 36.6341 167.383 36.8164C168.021 36.9987 168.626 37.2266 169.199 37.5L168.457 45.4297C167.572 45.1302 166.641 44.8828 165.664 44.6875C164.701 44.4792 163.757 44.375 162.832 44.375C162.663 44.375 162.441 44.3815 162.168 44.3945C161.908 44.3945 161.628 44.4141 161.328 44.4531C161.042 44.4792 160.749 44.5247 160.449 44.5898C160.15 44.6549 159.883 44.7461 159.648 44.8633C159.414 44.9674 159.225 45.1107 159.082 45.293C158.939 45.4753 158.874 45.6901 158.887 45.9375C158.9 46.224 159.004 46.4583 159.199 46.6406C159.408 46.8099 159.668 46.9466 159.98 47.0508C160.306 47.1419 160.658 47.207 161.035 47.2461C161.426 47.2852 161.81 47.3112 162.188 47.3242C162.565 47.3242 162.917 47.3242 163.242 47.3242C163.568 47.3112 163.835 47.3177 164.043 47.3438C165.085 47.4089 166.022 47.6302 166.855 48.0078C167.689 48.3854 168.392 48.8867 168.965 49.5117C169.551 50.1367 169.993 50.8854 170.293 51.7578C170.605 52.6172 170.762 53.5677 170.762 54.6094ZM195.195 64.2188L185.43 64.6875L185.352 56.4453H180.859L180.586 65H171.836L172.578 37.5391L181.875 37.9688L181.289 51.9922H185.625L185.664 37.3047L194.57 37.5391L195.195 64.2188ZM207.598 37.5L205.449 64.1016L197.207 64.5312V38.0469L207.598 37.5Z" fill="#250036"/>
<path fill-rule="evenodd" clip-rule="evenodd" d="M9 12C9 9.79086 10.7909 8 13 8H45C47.2091 8 49 9.79086 49 12V27.1865L38.5 9L25.9426 30.75H49V35.8812L41 40.5L48.8635 45.04C48.4057 46.7449 46.8494 48 45 48H13C10.7909 48 9 46.2091 9 44V12Z" fill="#250036"/>
<path d="M43 19L58.5885 46H27.4115L43 19Z" fill="#00D7F5"/>
<g filter="url(#filter0_d_335_3918)">
<path d="M31 11L46.5885 38H15.4115L31 11Z" fill="#F8E9FF"/>
</g>
<defs>
<filter id="filter0_d_335_3918" x="0.412109" y="0" width="61.1758" height="57" filterUnits="userSpaceOnUse" color-interpolation-filters="sRGB">
<feFlood flood-opacity="0" result="BackgroundImageFix"/>
<feColorMatrix in="SourceAlpha" type="matrix" values="0 0 0 0 0 0 0 0 0 0 0 0 0 0 0 0 0 0 127 0" result="hardAlpha"/>
<feOffset dy="4"/>
<feGaussianBlur stdDeviation="7.5"/>
<feComposite in2="hardAlpha" operator="out"/>
<feColorMatrix type="matrix" values="0 0 0 0 1 0 0 0 0 1 0 0 0 0 1 0 0 0 0.36 0"/>
<feBlend mode="normal" in2="BackgroundImageFix" result="effect1_dropShadow_335_3918"/>
<feBlend mode="normal" in="SourceGraphic" in2="effect1_dropShadow_335_3918" result="shape"/>
</filter>
</defs>
</svg>
