<svg width="39" height="39" viewBox="0 0 39 39" fill="none" xmlns="http://www.w3.org/2000/svg">
<g clip-path="url(#clip0_140_188)">
<path fill-rule="evenodd" clip-rule="evenodd" d="M0.000366211 19.4146C0.000366211 29.998 8.71444 38.58 19.4679 38.58C30.2193 38.58 38.9355 29.998 38.9355 19.4146C38.9355 8.83123 30.2193 0.251228 19.4679 0.251228C8.71444 0.251228 0.000366211 8.83123 0.000366211 19.4146ZM13.0138 35.5875C6.4516 33.0566 1.80157 26.7715 1.80157 19.4148C1.80157 9.82077 9.70033 2.04748 19.4446 2.04748C29.1888 2.04748 37.0876 9.82077 37.0876 19.4148C37.0876 29.0067 29.1888 36.7821 19.4446 36.7821C17.6242 36.7821 15.8705 36.5112 14.2211 36.0062C14.9384 34.8527 16.0144 32.9622 16.4126 31.4535C16.6275 30.6407 17.5115 27.3257 17.5115 27.3257C18.0871 28.4053 19.7678 29.3208 21.5569 29.3208C26.8763 29.3208 30.7109 24.5033 30.7109 18.5178C30.7109 12.7807 25.9546 8.48656 19.8345 8.48656C12.2214 8.48656 8.17819 13.5197 8.17819 18.9981C8.17819 21.5434 9.5544 24.7167 11.7564 25.7267C12.0921 25.8785 12.2714 25.8108 12.3486 25.4927C12.3722 25.3954 12.4352 25.144 12.5106 24.8429C12.6214 24.4004 12.7592 23.8503 12.8386 23.5242C12.8803 23.3477 12.8595 23.1978 12.7156 23.0254C11.9857 22.1551 11.404 20.554 11.404 19.0617C11.404 15.2315 14.3504 11.5245 19.3695 11.5245C23.7047 11.5245 26.7386 14.431 26.7386 18.5897C26.7386 23.2881 24.3282 26.5436 21.192 26.5436C19.4612 26.5436 18.1642 25.1355 18.5792 23.4051C18.7592 22.6591 19 21.8919 19.234 21.146C19.6479 19.8271 20.0409 18.5746 20.0409 17.6229C20.0409 16.2887 19.3132 15.1761 17.8097 15.1761C16.0373 15.1761 14.6173 16.9783 14.6173 19.3943C14.6173 20.9317 15.1449 21.9724 15.1449 21.9724C15.1449 21.9724 13.3953 29.2489 13.0763 30.6037C12.7219 32.1063 12.8595 34.2143 13.0138 35.5875Z" fill="#F3FFFE"/>
</g>
<defs>
<clipPath id="clip0_140_188">
<rect width="39" height="39" fill="white"/>
</clipPath>
</defs>
</svg>
